HIERARCHY
ROOT hip
{
	OFFSET	0.0	0.0	0.0
	CHANNELS 6 Xposition Yposition Zposition Xrotation Zrotation Yrotation
	JOINT mTorso
	{
		OFFSET	0.0	3.309947	0.0
		CHANNELS 6 Xposition Yposition Zposition Zrotation Xrotation Yrotation
		JOINT mChest
		{
			OFFSET	0.000001	8.066009	-0.605039
			CHANNELS 6 Xposition Yposition Zposition Zrotation Xrotation Yrotation
			JOINT mNeck
			{
				OFFSET	0.0	9.885960	-0.374253
				CHANNELS 6 Xposition Yposition Zposition Zrotation Xrotation Yrotation
				JOINT mHead
				{
					OFFSET	0.0	2.977550	-0.000001
					CHANNELS 6 Xposition Yposition Zposition Zrotation Xrotation Yrotation
					JOINT mSkull
					{
						OFFSET	0.0	3.110228	0.0
						CHANNELS 6 Xposition Yposition Zposition Zrotation Xrotation Yrotation
					}
					JOINT mEyeRight
					{
						OFFSET	-1.41732	3.110228	3.876606
						CHANNELS 6 Xposition Yposition Zposition Zrotation Xrotation Yrotation
					}
					JOINT mEyeLeft
					{
						OFFSET	1.41732	3.110228	3.876409
						CHANNELS 6 Xposition Yposition Zposition Zrotation Xrotation Yrotation
					}
				}
			}
			JOINT mCollarLeft
			{
				OFFSET	3.333260	6.511634	-0.823896
				CHANNELS 6 Xposition Yposition Zposition Zrotation Xrotation Yrotation
				JOINT mShoulderLeft
				{
					OFFSET	3.110223	-0.000135	0.000214
					CHANNELS 6 Xposition Yposition Zposition Zrotation Xrotation Yrotation
					JOINT mElbowLeft
					{
						OFFSET	9.763742	0.000216	-0.000379
						CHANNELS 6 Xposition Yposition Zposition Zrotation Xrotation Yrotation
						JOINT mWristLeft
						{
							OFFSET	8.070838	0.0	0.000016
							CHANNELS 6 Xposition Yposition Zposition Zrotation Xrotation Yrotation
						}
					}
				}
			}
			JOINT mCollarRight
			{
				OFFSET	-3.346448	6.511634	-0.823896
				CHANNELS 6 Xposition Yposition Zposition Zrotation Xrotation Yrotation
				JOINT mShoulderRight
				{
					OFFSET	-3.126682	-0.000132	0.000215
					CHANNELS 6 Xposition Yposition Zposition Zrotation Xrotation Yrotation
					JOINT mElbowRight
					{
						OFFSET	-9.763741	0.000214	-0.000385
						CHANNELS 6 Xposition Yposition Zposition Zrotation Xrotation Yrotation
						JOINT mWristRight
						{
							OFFSET	-8.070854	0.0	0.000011
							CHANNELS 6 Xposition Yposition Zposition Zrotation Xrotation Yrotation
						}
					}
				}
			}
		}
	}
	JOINT mHipRight
	{
		OFFSET	-5.071084	-1.617542	1.323629
		CHANNELS 6 Xposition Yposition Zposition Zrotation Xrotation Yrotation
		JOINT mKneeRight
		{
			OFFSET	1.914753	-19.327555	-0.031846
			CHANNELS 6 Xposition Yposition Zposition Zrotation Xrotation Yrotation
			JOINT mAnkleRight
			{
				OFFSET	0.000010	-18.444631	-1.136083
				CHANNELS 6 Xposition Yposition Zposition Zrotation Xrotation Yrotation
				JOINT mFootRight
				{
					OFFSET	0.0	-2.387278	4.407708
					CHANNELS 6 Xposition Yposition Zposition Zrotation Xrotation Yrotation
					JOINT mToeRight
					{
						OFFSET	-0.409762	-0.004094	4.149558
						CHANNELS 6 Xposition Yposition Zposition Zrotation Xrotation Yrotation
					}
				}
			}
		}
	}
	JOINT mHipLeft
	{
		OFFSET	4.990727	-1.614106	1.328996
		CHANNELS 6 Xposition Yposition Zposition Zrotation Xrotation Yrotation
		JOINT mKneeLeft
		{
			OFFSET	-1.794002	-19.332734	-0.035613
			CHANNELS 6 Xposition Yposition Zposition Zrotation Xrotation Yrotation
			JOINT mAnkleLeft
			{
				OFFSET	0.054250	-18.442832	-1.137005
				CHANNELS 6 Xposition Yposition Zposition Zrotation Xrotation Yrotation
				JOINT mFootLeft
				{
					OFFSET	0.000003	-2.386608	4.407706
					CHANNELS 6 Xposition Yposition Zposition Zrotation Xrotation Yrotation
					JOINT mToeLeft
					{
						OFFSET	0.325589	0.034291	4.149086
						CHANNELS 6 Xposition Yposition Zposition Zrotation Xrotation Yrotation
					}
				}
			}
		}
	}
}
MOTION
Frames:	9
Frame Time: 0.033333
-2.653267 37.158351 2.178966 7.453091 10.642710 4.349378 0.0 3.309950 0.000001 2.769765 1.887228 1.472980 0.0 8.066009 -0.605038 9.730226 7.765148 12.763294 0.000016 9.886110 -0.374292 0.000752 0.000837 0.0 0.0 2.977533 -0.000003 0.0 0.0 0.0 0.0 3.11023 0.0 0.0 0.0 0.0 -1.417320 3.11023 3.876606 0.0 0.0 0.0 1.417319 3.11023 3.876409 0.0 0.0 0.0 3.333259 6.511636 -0.823895 0.0 0.0 0.0 3.110231 0.0 0.0 -8.051315 3.209474 7.539079 9.763761 -0.000179 0.000577 -0.006671 -0.000600 -49.465985 8.070843 -0.000002 -0.000014 0.0 0.0 0.000477 -3.346448 6.511639 -0.823895 0.0 0.0 0.0 -3.126686 0.0 -0.000001 -14.553081 -4.498431 -20.506042 -9.763758 0.000142 0.000340 -0.007322 -0.004525 35.671946 -8.070849 0.0 -0.000025 0.0 0.001092 -0.000958 -5.071092 -1.617558 1.323619 -6.045304 -31.685257 0.605775 1.912118 -19.327885 0.002154 -2.406114 59.473918 -2.726680 -0.000024 -18.444602 -1.136568 -1.448688 -34.398686 -3.185711 0.0 -2.387277 4.407706 0.0 0.0 0.0 -0.409762 -0.004094 4.149558 0.0 0.0 0.0 4.990738 -1.614089 1.329012 -5.815490 -27.611402 3.744334 -1.793947 -19.332758 -0.034091 1.143368 49.355778 -6.717053 0.054279 -18.442817 -1.137289 -2.199947 -28.293755 -4.097781 0.0 -2.386607 4.407704 0.0 0.0 0.0 0.325589 0.034291 4.149086 0.0 0.0 0.0 
-2.868154 36.748916 2.359121 7.998224 11.365776 4.600789 0.000003 3.309950 -0.000002 3.000640 2.044251 1.587373 0.0 8.066010 -0.605039 10.557856 8.387572 13.704815 0.000008 9.886081 -0.374292 0.000745 0.000918 0.0 0.000011 2.977522 -0.000003 0.0 0.0 0.0 0.0 3.11023 0.0 0.0 0.0 0.0 -1.417320 3.11023 3.876606 0.0 0.0 0.0 1.417319 3.11023 3.876409 0.0 0.0 0.0 3.333261 6.511637 -0.823896 0.0 0.0 0.0 3.110229 -0.000001 0.000001 -8.758450 3.381165 8.155212 9.763756 -0.000180 0.000593 -0.007021 -0.000199 -53.583702 8.070846 0.000001 -0.000038 0.0 0.0 0.000649 -3.346447 6.511638 -0.823895 0.0 0.0 0.0 -3.126684 0.000003 -0.000001 -15.891914 -4.408326 -22.115241 -9.763756 0.000168 0.000327 -0.007979 -0.005235 38.640871 -8.070852 0.000004 0.0 0.0 0.001177 -0.000795 -5.071091 -1.617553 1.323618 -6.591918 -33.066983 0.465162 1.914702 -19.327578 -0.029849 -2.186069 62.067309 -3.100267 -0.000023 -18.444599 -1.136553 -1.774944 -36.055441 -3.458017 0.0 -2.387278 4.407706 0.0 0.0 0.0 -0.409762 -0.004094 4.149558 0.0 0.0 0.0 4.990734 -1.614086 1.329012 -5.949396 -28.847562 3.857470 -1.793937 -19.332764 -0.034014 0.809300 51.589565 -6.871170 0.054282 -18.442817 -1.137283 -2.272912 -29.686245 -4.424012 0.0 -2.386608 4.407705 0.0 0.0 0.0 0.325589 0.034291 4.149086 0.0 0.0 0.0 
-3.081731 36.341484 2.538415 8.544420 12.084750 4.844668 0.000001 3.309950 -0.000001 3.230116 2.200279 1.699796 0.0 8.066009 -0.605038 11.384437 9.000683 14.621994 -0.000009 9.886110 -0.374288 0.000507 0.000895 0.0 0.000008 2.977533 -0.000004 0.0 0.0 0.0 0.0 3.11023 0.0 0.0 0.0 0.0 -1.417320 3.11023 3.876606 0.0 0.0 0.0 1.417319 3.11023 3.876409 0.0 0.0 0.0 3.333257 6.511636 -0.823895 0.0 0.0 0.0 3.110230 0.000002 0.0 -9.465510 3.537020 8.764621 9.763754 -0.000187 0.000603 -0.007319 0.000283 -57.675151 8.070851 0.0 0.000044 0.0 0.0 0.000062 -3.346449 6.511635 -0.823895 0.0 0.0 0.0 -3.126683 0.0 0.0 -17.225329 -4.247537 -23.687783 -9.763755 0.000189 0.000313 -0.008519 -0.005954 41.591426 -8.070848 0.000001 0.000038 0.0 0.001262 -0.000594 -5.071083 -1.617552 1.323618 -7.123904 -34.286721 0.301676 1.914679 -19.327605 -0.029878 -1.996199 64.449147 -3.465050 -0.000018 -18.444595 -1.136550 -2.102845 -37.659196 -3.743053 0.0 -2.387278 4.407705 0.0 0.0 0.0 -0.409762 -0.004094 4.149558 0.0 0.0 0.0 4.990734 -1.614089 1.329011 -6.103875 -30.025140 3.935388 -1.793914 -19.332766 -0.033894 0.493916 53.709375 -7.005744 0.054276 -18.442824 -1.137277 -2.378160 -31.021907 -4.750350 0.0 -2.386608 4.407706 0.0 0.0 0.0 0.325589 0.034291 4.149086 0.0 0.0 0.0 
-3.292736 35.938610 2.715769 9.089501 12.797093 5.080215 0.000002 3.309950 0.0 3.456834 2.354288 1.809587 0.0 8.066009 -0.605037 12.205027 9.600385 15.509550 0.000045 9.886067 -0.374318 0.001470 0.001553 0.0 0.000009 2.977517 -0.000005 0.0 0.0 -0.000074 0.0 3.11023 0.0 0.0 0.0 0.0 -1.417320 3.11023 3.876606 0.0 0.0 0.0 1.417319 3.11023 3.876409 0.0 0.0 0.0 3.333262 6.511637 -0.823895 0.0 0.0 0.0 3.110228 -0.000001 0.0 -10.167707 3.676531 9.363401 9.763756 -0.000180 0.000601 -0.007605 0.000772 -61.716766 8.070846 0.0 -0.000022 0.0 0.0 0.000560 -3.346451 6.511638 -0.823894 0.0 0.0 0.0 -3.126686 0.000001 0.0 -18.541581 -4.019735 -25.211968 -9.763751 0.000208 0.000297 -0.009027 -0.006750 44.505453 -8.070853 -0.000001 0.000047 0.0 0.001355 -0.000570 -5.071086 -1.617557 1.323619 -7.652217 -35.438979 0.101560 1.914680 -19.327616 -0.030064 -1.852387 66.712500 -3.788995 -0.000007 -18.444599 -1.136537 -2.435290 -39.207282 -4.040650 0.0 -2.387278 4.407706 0.0 0.0 0.0 -0.409762 -0.004094 4.149558 0.0 0.0 0.0 4.990730 -1.614087 1.329010 -6.279517 -31.145501 3.977680 -1.793941 -19.332761 -0.034072 0.196843 55.715631 -7.122385 0.054276 -18.442830 -1.137265 -2.514337 -32.299040 -5.076278 0.0 -2.386610 4.407708 0.0 0.0 0.0 0.325589 0.034291 4.149086 0.0 0.0 0.0 
-3.499909 35.542850 2.890100 9.631257 13.500292 5.306703 0.000002 3.309952 -0.000002 3.679379 2.505407 1.916137 0.000001 8.066007 -0.605037 13.014459 10.182846 16.362811 0.0 9.886027 -0.374297 0.000584 0.001179 0.0 0.000005 2.977521 -0.000004 0.0 0.0 -0.000079 0.0 3.11023 0.0 0.0 0.0 0.0 -1.417320 3.11023 3.876606 0.0 0.0 0.0 1.417319 3.11023 3.876409 0.0 0.0 0.0 3.333258 6.511633 -0.823895 0.0 0.0 0.0 3.110224 -0.000002 0.000001 -10.860123 3.799406 9.947686 9.763755 -0.000187 0.000616 -0.007836 0.001331 -65.681916 8.070844 0.0 -0.000056 0.0 0.0 0.000868 -3.346452 6.511634 -0.823896 0.0 0.0 0.0 -3.126685 0.0 -0.000001 -19.829446 -3.730561 -26.677245 -9.763763 0.000228 0.000282 -0.009425 -0.007549 47.364704 -8.070847 0.0 0.000027 0.0 0.001444 -0.000815 -5.071092 -1.617556 1.323619 -8.176384 -36.475101 -0.127685 1.913926 -19.327678 -0.013767 -1.741881 68.807118 -4.084325 -0.000003 -18.444603 -1.136508 -2.774464 -40.696227 -4.350443 0.0 -2.387277 4.407705 0.0 0.0 0.0 -0.409762 -0.004094 4.149558 0.0 0.0 0.0 4.990737 -1.614089 1.329012 -6.477360 -32.206905 3.984221 -1.793913 -19.332750 -0.033944 -0.082060 57.605110 -7.222454 0.054275 -18.442819 -1.137281 -2.679447 -33.515366 -5.401118 0.0 -2.386608 4.407704 0.0 0.0 0.0 0.325589 0.034291 4.149086 0.0 0.0 0.0 
-3.701990 35.156768 3.060324 10.167440 14.191826 5.523507 -0.000001 3.309950 -0.000001 3.896216 2.652515 2.018828 0.000001 8.066010 -0.605038 13.807516 10.744322 17.177357 0.000010 9.886084 -0.374300 0.000748 0.001344 0.0 0.000001 2.977527 -0.000002 0.0 0.0 -0.000059 0.0 3.11023 0.0 0.0 0.0 0.0 -1.417320 3.11023 3.876606 0.0 0.0 0.0 1.417319 3.11023 3.876409 0.0 0.0 0.0 3.333265 6.511642 -0.823896 0.0 0.0 0.0 3.110225 -0.000004 0.000001 -11.537900 3.905867 10.513568 9.763761 -0.000187 0.000603 -0.008033 0.001894 -69.544747 8.070846 0.000001 -0.000035 0.0 0.0 0.000734 -3.346449 6.511641 -0.823895 0.0 0.0 0.0 -3.126686 0.0 0.0 -21.078259 -3.387206 -28.074043 -9.763759 0.000239 0.000270 -0.009740 -0.008384 50.150768 -8.070853 0.0 -0.000025 0.0 0.001509 -0.001231 -5.071091 -1.617557 1.323617 -8.706370 -37.528910 -0.401962 1.914537 -19.327618 -0.026359 -1.704348 70.864970 -4.298721 0.0 -18.444602 -1.136493 -3.121247 -42.122920 -4.671612 0.0 -2.387278 4.407706 0.0 0.0 0.0 -0.409762 -0.004094 4.149558 0.0 0.0 0.0 4.990737 -1.614087 1.329012 -6.696979 -33.210516 3.956552 -1.793901 -19.332752 -0.033951 -0.343197 59.377892 -7.307817 0.054265 -18.442835 -1.137273 -2.870707 -34.668605 -5.724062 0.0 -2.386609 4.407708 0.0 0.0 0.0 0.325589 0.034291 4.149086 0.0 0.0 0.0 
-3.897723 34.782936 3.225353 10.695768 14.869208 5.730091 0.000004 3.309950 -0.000002 4.106038 2.794720 2.117063 0.0 8.066008 -0.605038 14.578723 11.281364 17.949380 0.000005 9.886095 -0.374299 0.000684 0.001377 0.0 0.0 2.977528 -0.000003 0.0 0.0 -0.000059 0.0 3.11023 0.0 0.0 0.0 0.0 -1.417320 3.11023 3.876606 0.0 0.0 0.0 1.417319 3.11023 3.876409 0.0 0.0 0.0 3.333263 6.511641 -0.823896 0.0 0.0 0.0 3.110225 0.000001 -0.000001 -12.195949 3.996346 11.057607 9.763756 -0.000198 0.000618 -0.008191 0.002488 -73.280327 8.070847 0.0 0.000002 0.0 0.0 0.000463 -3.346451 6.511640 -0.823896 0.0 0.0 0.0 -3.126680 -0.000001 0.0 -22.277930 -2.998490 -29.393970 -9.763754 0.000257 0.000253 -0.009984 -0.009201 52.84488 -8.070845 0.000002 -0.000054 0.0 0.001622 -0.001455 -5.071087 -1.617555 1.323617 -9.235943 -38.480132 -0.701527 1.914583 -19.327605 -0.026738 -1.707254 72.763585 -4.470992 0.000006 -18.444609 -1.136469 -3.475489 -43.483022 -5.002849 0.0 -2.387278 4.407706 0.0 0.0 0.0 -0.409762 -0.004094 4.149558 0.0 0.0 0.0 4.990730 -1.614085 1.329011 -6.937624 -34.156372 3.896981 -1.793966 -19.332750 -0.034241 -0.587353 61.032392 -7.379995 0.054263 -18.442835 -1.137270 -3.084506 -35.755841 -6.044019 0.0 -2.386608 4.407707 0.0 0.0 0.0 0.325589 0.034291 4.149086 0.0 0.0 0.0 
-4.085852 34.423938 3.384097 11.213937 15.529939 5.925994 0.000001 3.309950 0.0 4.307356 2.931069 2.210310 0.000002 8.066008 -0.605037 15.322579 11.790649 18.675272 0.000061 9.885999 -0.374326 0.001850 0.001902 0.0 0.000011 2.977510 -0.000003 0.0 0.0 0.0 0.0 3.11023 0.0 0.0 0.0 0.0 -1.417320 3.11023 3.876606 0.0 0.0 0.0 1.417319 3.11023 3.876409 0.0 0.0 0.0 3.333261 6.511634 -0.823895 0.0 0.0 0.0 3.110232 -0.000001 0.0 -12.829448 4.071640 11.576061 9.763751 -0.000195 0.000607 -0.008248 0.003082 -76.863228 8.070843 0.0 0.000034 0.0 0.0 0.000266 -3.346448 6.511637 -0.823895 0.0 0.0 0.0 -3.126686 0.000002 -0.000001 -23.419373 -2.574348 -30.629897 -9.763752 0.000265 0.000235 -0.010199 -0.010005 55.428491 -8.070846 0.0 -0.000022 0.0 0.001678 -0.001281 -5.071092 -1.617552 1.323618 -9.767918 -39.376964 -1.028039 1.914641 -19.327610 -0.031045 -1.768640 74.548620 -4.578487 0.000005 -18.444615 -1.136473 -3.835689 -44.772290 -5.342218 0.0 -2.387276 4.407702 0.0 0.0 0.0 -0.409762 -0.004094 4.149558 0.0 0.0 0.0 4.990741 -1.614091 1.329014 -7.199291 -35.041601 3.807895 -1.793894 -19.332742 -0.034028 -0.814538 62.563996 -7.440427 0.054262 -18.442831 -1.137267 -3.316461 -36.773750 -6.359535 0.0 -2.386608 4.407705 0.0 0.0 0.0 0.325589 0.034291 4.149086 0.0 0.0 0.0 
-4.265126 34.082359 3.535464 11.719622 16.171509 6.110882 0.000009 3.309951 -0.000004 4.498739 3.060546 2.298013 0.0 8.066006 -0.605037 16.033348 12.269118 19.351896 0.0 9.886094 -0.374293 0.000776 0.001400 0.0 0.000008 2.977524 -0.000004 0.0 0.0 -0.000072 0.0 3.11023 0.0 0.0 0.0 0.0 -1.417320 3.11023 3.876606 0.0 0.0 0.0 1.417319 3.11023 3.876409 0.0 0.0 0.0 3.333263 6.511639 -0.823895 0.0 0.0 0.0 3.110226 0.0 0.0 -13.433287 4.132767 12.065602 9.763754 -0.000195 0.000606 -0.008327 0.003648 -80.268242 8.070844 0.0 0.000037 0.0 0.0 0.000246 -3.346449 6.511637 -0.823895 0.0 0.0 0.0 -3.126685 0.0 0.0 -24.494113 -2.125742 -31.775904 -9.763755 0.000267 0.000223 -0.010254 -0.010792 57.883466 -8.070851 0.000001 0.000042 0.0 0.001763 -0.000852 -5.071087 -1.617555 1.323618 -10.300820 -40.179029 -1.370987 1.914704 -19.327602 -0.025240 -1.870954 76.176726 -4.638323 0.000012 -18.444604 -1.136456 -4.198673 -45.985900 -5.686841 0.0 -2.387278 4.407708 0.0 0.0 0.0 -0.409762 -0.004094 4.149558 0.0 0.0 0.0 4.990733 -1.614086 1.329011 -7.479323 -35.868114 3.694063 -1.793915 -19.332759 -0.034162 -1.025598 63.973209 -7.491256 0.054263 -18.442821 -1.137265 -3.561425 -37.719142 -6.668816 0.0 -2.386607 4.407704 0.0 0.0 0.0 0.325589 0.034291 4.149086 0.0 0.0 0.0 
